<mxfile host="app.diagrams.net" agent="Mozilla/5.0 (Windows NT 10.0; Win64; x64) AppleWebKit/537.36 (KHTML, like Gecko) Chrome/130.0.0.0 Safari/537.36 Edg/130.0.0.0" version="24.8.4">
  <diagram name="第 1 页" id="BwXEqp-oAcLrYvd5yXTP">
    <mxGraphModel dx="3389" dy="1940" grid="1" gridSize="10" guides="1" tooltips="1" connect="1" arrows="1" fold="1" page="1" pageScale="1" pageWidth="827" pageHeight="1169" math="0" shadow="0">
      <root>
        <mxCell id="0" />
        <mxCell id="1" parent="0" />
        <mxCell id="EV8aRCviJuZgnpMaLo0F-1" value="&lt;div&gt;Administrator&lt;/div&gt;" style="shape=umlActor;verticalLabelPosition=bottom;verticalAlign=top;html=1;" parent="1" vertex="1">
          <mxGeometry x="852" y="528" width="30" height="60" as="geometry" />
        </mxCell>
        <mxCell id="EV8aRCviJuZgnpMaLo0F-2" value="&lt;b&gt;Users&lt;/b&gt;&lt;div&gt;&lt;br&gt;&lt;/div&gt;" style="shape=umlActor;verticalLabelPosition=bottom;verticalAlign=top;html=1;" parent="1" vertex="1">
          <mxGeometry x="20" y="395" width="30" height="60" as="geometry" />
        </mxCell>
        <mxCell id="EV8aRCviJuZgnpMaLo0F-4" value="" style="shape=umlBoundary;whiteSpace=wrap;html=1;aspect=fixed;" parent="1" vertex="1">
          <mxGeometry x="179" y="320" width="57.6" height="48" as="geometry" />
        </mxCell>
        <mxCell id="EV8aRCviJuZgnpMaLo0F-13" value="" style="endArrow=open;html=1;rounded=0;exitX=1;exitY=0.3333333333333333;exitDx=0;exitDy=0;exitPerimeter=0;entryX=-0.029;entryY=0.488;entryDx=0;entryDy=0;entryPerimeter=0;endFill=0;" parent="1" source="EV8aRCviJuZgnpMaLo0F-2" target="EV8aRCviJuZgnpMaLo0F-4" edge="1">
          <mxGeometry width="50" height="50" relative="1" as="geometry">
            <mxPoint x="280" y="690" as="sourcePoint" />
            <mxPoint x="330" y="640" as="targetPoint" />
          </mxGeometry>
        </mxCell>
        <mxCell id="EV8aRCviJuZgnpMaLo0F-14" value="" style="endArrow=open;html=1;rounded=0;exitX=1;exitY=0.3333333333333333;exitDx=0;exitDy=0;exitPerimeter=0;entryX=-0.051;entryY=0.526;entryDx=0;entryDy=0;entryPerimeter=0;endFill=0;" parent="1" source="EV8aRCviJuZgnpMaLo0F-2" target="EV8aRCviJuZgnpMaLo0F-18" edge="1">
          <mxGeometry width="50" height="50" relative="1" as="geometry">
            <mxPoint y="611" as="sourcePoint" />
            <mxPoint x="148" y="520" as="targetPoint" />
          </mxGeometry>
        </mxCell>
        <mxCell id="EV8aRCviJuZgnpMaLo0F-15" value="&lt;span style=&quot;text-align: center;&quot;&gt;&lt;font style=&quot;font-size: 8px;&quot;&gt;&lt;b&gt;TutorialContentPage&lt;/b&gt;&lt;/font&gt;&lt;/span&gt;" style="text;whiteSpace=wrap;html=1;" parent="1" vertex="1">
          <mxGeometry x="178" y="440" width="110" height="20" as="geometry" />
        </mxCell>
        <mxCell id="EV8aRCviJuZgnpMaLo0F-17" value="&lt;span style=&quot;color: rgb(0, 0, 0); font-family: Helvetica; font-style: normal; font-variant-ligatures: normal; font-variant-caps: normal; letter-spacing: normal; orphans: 2; text-align: center; text-indent: 0px; text-transform: none; widows: 2; word-spacing: 0px; -webkit-text-stroke-width: 0px; white-space: normal; text-decoration-thickness: initial; text-decoration-style: initial; text-decoration-color: initial; float: none; display: inline !important;&quot;&gt;&lt;font style=&quot;font-size: 8px;&quot;&gt;TutorialSearchPage&lt;/font&gt;&lt;/span&gt;" style="text;whiteSpace=wrap;html=1;fontStyle=1" parent="1" vertex="1">
          <mxGeometry x="176" y="361" width="110" height="20" as="geometry" />
        </mxCell>
        <mxCell id="EV8aRCviJuZgnpMaLo0F-18" value="" style="shape=umlBoundary;whiteSpace=wrap;html=1;aspect=fixed;" parent="1" vertex="1">
          <mxGeometry x="179" y="400" width="57.6" height="48" as="geometry" />
        </mxCell>
        <mxCell id="EV8aRCviJuZgnpMaLo0F-19" value="" style="shape=umlBoundary;whiteSpace=wrap;html=1;aspect=fixed;" parent="1" vertex="1">
          <mxGeometry x="179" y="480" width="57.6" height="48" as="geometry" />
        </mxCell>
        <mxCell id="EV8aRCviJuZgnpMaLo0F-21" value="&lt;span style=&quot;text-align: center; font-size: 8px;&quot;&gt;UploadActions&lt;/span&gt;&lt;span style=&quot;text-align: center; background-color: initial;&quot;&gt;Page&lt;/span&gt;" style="text;whiteSpace=wrap;html=1;fontSize=8;fontStyle=1" parent="1" vertex="1">
          <mxGeometry x="175" y="525" width="144" height="20" as="geometry" />
        </mxCell>
        <mxCell id="EV8aRCviJuZgnpMaLo0F-22" value="" style="shape=umlBoundary;whiteSpace=wrap;html=1;aspect=fixed;" parent="1" vertex="1">
          <mxGeometry x="176" y="665" width="57.6" height="48" as="geometry" />
        </mxCell>
        <mxCell id="EV8aRCviJuZgnpMaLo0F-23" value="&lt;span style=&quot;font-size: 8px; text-align: center;&quot;&gt;Upload&lt;/span&gt;&lt;span style=&quot;font-size: 8px; text-align: center; background-color: initial;&quot;&gt;Tutorial&lt;/span&gt;&lt;span style=&quot;font-size: 8px; text-align: center; background-color: initial;&quot;&gt;Page&lt;/span&gt;" style="text;whiteSpace=wrap;html=1;fontSize=8;fontStyle=1" parent="1" vertex="1">
          <mxGeometry x="175" y="708" width="144" height="20" as="geometry" />
        </mxCell>
        <mxCell id="EV8aRCviJuZgnpMaLo0F-24" value="" style="endArrow=open;html=1;rounded=0;exitX=1;exitY=0.3333333333333333;exitDx=0;exitDy=0;exitPerimeter=0;entryX=-0.123;entryY=0.535;entryDx=0;entryDy=0;entryPerimeter=0;endFill=0;" parent="1" source="EV8aRCviJuZgnpMaLo0F-40" target="EV8aRCviJuZgnpMaLo0F-22" edge="1">
          <mxGeometry width="50" height="50" relative="1" as="geometry">
            <mxPoint x="70" y="494" as="sourcePoint" />
            <mxPoint x="229" y="468" as="targetPoint" />
          </mxGeometry>
        </mxCell>
        <mxCell id="EV8aRCviJuZgnpMaLo0F-25" value="" style="endArrow=open;html=1;rounded=0;exitX=1;exitY=0.3333333333333333;exitDx=0;exitDy=0;exitPerimeter=0;entryX=-0.085;entryY=0.466;entryDx=0;entryDy=0;entryPerimeter=0;endFill=0;" parent="1" source="EV8aRCviJuZgnpMaLo0F-2" target="EV8aRCviJuZgnpMaLo0F-19" edge="1">
          <mxGeometry width="50" height="50" relative="1" as="geometry">
            <mxPoint x="80" y="460" as="sourcePoint" />
            <mxPoint x="239" y="434" as="targetPoint" />
          </mxGeometry>
        </mxCell>
        <mxCell id="EV8aRCviJuZgnpMaLo0F-33" value="" style="ellipse;shape=umlControl;whiteSpace=wrap;html=1;aspect=fixed;" parent="1" vertex="1">
          <mxGeometry x="307" y="317" width="48" height="48" as="geometry" />
        </mxCell>
        <mxCell id="EV8aRCviJuZgnpMaLo0F-35" value="&lt;b&gt;&lt;span style=&quot;text-align: center;&quot;&gt;&lt;font style=&quot;font-size: 8px;&quot;&gt;TutorialReview&lt;/font&gt;&lt;/span&gt;&lt;span style=&quot;text-align: center; background-color: initial;&quot;&gt;Page&lt;/span&gt;&lt;/b&gt;" style="text;whiteSpace=wrap;html=1;fontSize=8;" parent="1" vertex="1">
          <mxGeometry x="738" y="488" width="144" height="20" as="geometry" />
        </mxCell>
        <mxCell id="EV8aRCviJuZgnpMaLo0F-37" value="&lt;div style=&quot;text-align: center;&quot;&gt;&lt;span style=&quot;background-color: initial;&quot;&gt;&lt;b&gt;CommentsReviewPage&lt;/b&gt;&lt;/span&gt;&lt;/div&gt;" style="text;whiteSpace=wrap;html=1;fontSize=8;" parent="1" vertex="1">
          <mxGeometry x="733" y="666" width="144" height="20" as="geometry" />
        </mxCell>
        <mxCell id="EV8aRCviJuZgnpMaLo0F-38" value="" style="endArrow=open;html=1;rounded=0;exitX=0;exitY=0.3333333333333333;exitDx=0;exitDy=0;exitPerimeter=0;entryX=1.01;entryY=0.587;entryDx=0;entryDy=0;entryPerimeter=0;endFill=0;" parent="1" target="EV8aRCviJuZgnpMaLo0F-45" edge="1">
          <mxGeometry width="50" height="50" relative="1" as="geometry">
            <mxPoint x="853" y="548" as="sourcePoint" />
            <mxPoint x="746.4959999999999" y="482.9599999999999" as="targetPoint" />
          </mxGeometry>
        </mxCell>
        <mxCell id="EV8aRCviJuZgnpMaLo0F-39" value="" style="endArrow=open;html=1;rounded=0;exitX=0;exitY=0.3333333333333333;exitDx=0;exitDy=0;exitPerimeter=0;entryX=1.015;entryY=0.563;entryDx=0;entryDy=0;entryPerimeter=0;endFill=0;" parent="1" target="EV8aRCviJuZgnpMaLo0F-46" edge="1">
          <mxGeometry width="50" height="50" relative="1" as="geometry">
            <mxPoint x="853" y="548" as="sourcePoint" />
            <mxPoint x="746.1200000000001" y="634.0400000000001" as="targetPoint" />
          </mxGeometry>
        </mxCell>
        <mxCell id="EV8aRCviJuZgnpMaLo0F-40" value="&lt;div&gt;&lt;b&gt;Uploaders&lt;/b&gt;&lt;/div&gt;" style="shape=umlActor;verticalLabelPosition=bottom;verticalAlign=top;html=1;" parent="1" vertex="1">
          <mxGeometry x="20" y="671" width="30" height="60" as="geometry" />
        </mxCell>
        <mxCell id="EV8aRCviJuZgnpMaLo0F-41" value="" style="endArrow=block;endSize=15;endFill=0;html=1;rounded=0;exitX=0.5;exitY=0;exitDx=0;exitDy=0;exitPerimeter=0;" parent="1" source="EV8aRCviJuZgnpMaLo0F-40" edge="1">
          <mxGeometry width="160" relative="1" as="geometry">
            <mxPoint x="30" y="570" as="sourcePoint" />
            <mxPoint x="35" y="480" as="targetPoint" />
          </mxGeometry>
        </mxCell>
        <mxCell id="EV8aRCviJuZgnpMaLo0F-42" value="&lt;span style=&quot;color: rgb(0, 0, 0); font-family: Helvetica; font-style: normal; font-variant-ligatures: normal; font-variant-caps: normal; letter-spacing: normal; orphans: 2; text-align: center; text-indent: 0px; text-transform: none; widows: 2; word-spacing: 0px; -webkit-text-stroke-width: 0px; white-space: normal; text-decoration-thickness: initial; text-decoration-style: initial; text-decoration-color: initial; float: none; display: inline !important;&quot;&gt;&lt;font style=&quot;font-size: 8px;&quot;&gt;RechargeControl&lt;/font&gt;&lt;/span&gt;&lt;span style=&quot;font-size: 8px; text-align: center;&quot;&gt;ler&lt;/span&gt;" style="text;whiteSpace=wrap;html=1;fontStyle=1" parent="1" vertex="1">
          <mxGeometry x="296" y="272" width="110" height="20" as="geometry" />
        </mxCell>
        <mxCell id="EV8aRCviJuZgnpMaLo0F-43" value="&lt;span style=&quot;color: rgb(0, 0, 0); font-family: Helvetica; font-style: normal; font-variant-ligatures: normal; font-variant-caps: normal; letter-spacing: normal; orphans: 2; text-align: center; text-indent: 0px; text-transform: none; widows: 2; word-spacing: 0px; -webkit-text-stroke-width: 0px; white-space: normal; text-decoration-thickness: initial; text-decoration-style: initial; text-decoration-color: initial; float: none; display: inline !important;&quot;&gt;&lt;font style=&quot;font-size: 8px;&quot;&gt;PayTutorial&lt;/font&gt;&lt;/span&gt;&lt;span style=&quot;text-align: center;&quot;&gt;&lt;font style=&quot;font-size: 8px;&quot;&gt;Control&lt;/font&gt;&lt;/span&gt;&lt;span style=&quot;font-size: 8px; text-align: center;&quot;&gt;ler&lt;/span&gt;" style="text;whiteSpace=wrap;html=1;fontStyle=1" parent="1" vertex="1">
          <mxGeometry x="410" y="355" width="110" height="20" as="geometry" />
        </mxCell>
        <mxCell id="EV8aRCviJuZgnpMaLo0F-45" value="" style="shape=umlBoundary;whiteSpace=wrap;html=1;aspect=fixed;" parent="1" vertex="1">
          <mxGeometry x="742" y="443" width="57.6" height="48" as="geometry" />
        </mxCell>
        <mxCell id="EV8aRCviJuZgnpMaLo0F-46" value="" style="shape=umlBoundary;whiteSpace=wrap;html=1;aspect=fixed;" parent="1" vertex="1">
          <mxGeometry x="743" y="621" width="57.6" height="48" as="geometry" />
        </mxCell>
        <mxCell id="EV8aRCviJuZgnpMaLo0F-47" value="" style="ellipse;shape=umlControl;whiteSpace=wrap;html=1;aspect=fixed;" parent="1" vertex="1">
          <mxGeometry x="425" y="316" width="48" height="48" as="geometry" />
        </mxCell>
        <mxCell id="EV8aRCviJuZgnpMaLo0F-58" value="" style="ellipse;shape=umlEntity;whiteSpace=wrap;html=1;aspect=fixed;" parent="1" vertex="1">
          <mxGeometry x="540" y="481" width="48" height="48" as="geometry" />
        </mxCell>
        <mxCell id="EV8aRCviJuZgnpMaLo0F-61" value="&lt;span style=&quot;color: rgb(0, 0, 0); font-family: Helvetica; font-style: normal; font-variant-ligatures: normal; font-variant-caps: normal; letter-spacing: normal; orphans: 2; text-align: center; text-indent: 0px; text-transform: none; widows: 2; word-spacing: 0px; -webkit-text-stroke-width: 0px; white-space: normal; text-decoration-thickness: initial; text-decoration-style: initial; text-decoration-color: initial; float: none; display: inline !important;&quot;&gt;&lt;font style=&quot;font-size: 8px;&quot;&gt;Tutorial&lt;/font&gt;&lt;/span&gt;" style="text;whiteSpace=wrap;html=1;fontStyle=1" parent="1" vertex="1">
          <mxGeometry x="549" y="524" width="110" height="20" as="geometry" />
        </mxCell>
        <mxCell id="EV8aRCviJuZgnpMaLo0F-65" value="&lt;span style=&quot;color: rgb(0, 0, 0); font-family: Helvetica; font-style: normal; font-variant-ligatures: normal; font-variant-caps: normal; letter-spacing: normal; orphans: 2; text-align: center; text-indent: 0px; text-transform: none; widows: 2; word-spacing: 0px; -webkit-text-stroke-width: 0px; white-space: normal; text-decoration-thickness: initial; text-decoration-style: initial; text-decoration-color: initial; float: none; display: inline !important;&quot;&gt;&lt;font style=&quot;font-size: 8px;&quot;&gt;UploadActionsControl&lt;/font&gt;&lt;/span&gt;&lt;span style=&quot;font-size: 8px; text-align: center;&quot;&gt;ler&lt;/span&gt;" style="text;whiteSpace=wrap;html=1;fontStyle=1" parent="1" vertex="1">
          <mxGeometry x="288" y="603" width="110" height="20" as="geometry" />
        </mxCell>
        <mxCell id="EV8aRCviJuZgnpMaLo0F-66" value="&lt;span style=&quot;color: rgb(0, 0, 0); font-family: Helvetica; font-style: normal; font-variant-ligatures: normal; font-variant-caps: normal; letter-spacing: normal; orphans: 2; text-align: center; text-indent: 0px; text-transform: none; widows: 2; word-spacing: 0px; -webkit-text-stroke-width: 0px; white-space: normal; text-decoration-thickness: initial; text-decoration-style: initial; text-decoration-color: initial; float: none; display: inline !important;&quot;&gt;&lt;font style=&quot;font-size: 8px;&quot;&gt;Videos&lt;/font&gt;&lt;/span&gt;" style="text;whiteSpace=wrap;html=1;fontStyle=1" parent="1" vertex="1">
          <mxGeometry x="549" y="435" width="110" height="20" as="geometry" />
        </mxCell>
        <mxCell id="EV8aRCviJuZgnpMaLo0F-67" value="&lt;span style=&quot;color: rgb(0, 0, 0); font-family: Helvetica; font-style: normal; font-variant-ligatures: normal; font-variant-caps: normal; letter-spacing: normal; orphans: 2; text-align: center; text-indent: 0px; text-transform: none; widows: 2; word-spacing: 0px; -webkit-text-stroke-width: 0px; white-space: normal; text-decoration-thickness: initial; text-decoration-style: initial; text-decoration-color: initial; float: none; display: inline !important;&quot;&gt;&lt;font style=&quot;font-size: 8px;&quot;&gt;ViewVideos&lt;/font&gt;&lt;/span&gt;&lt;span style=&quot;font-size: 8px; text-align: center;&quot;&gt;Control&lt;/span&gt;&lt;span style=&quot;font-size: 8px; text-align: center;&quot;&gt;ler&lt;/span&gt;" style="text;whiteSpace=wrap;html=1;fontStyle=1" parent="1" vertex="1">
          <mxGeometry x="296" y="431" width="110" height="20" as="geometry" />
        </mxCell>
        <mxCell id="EV8aRCviJuZgnpMaLo0F-70" value="" style="ellipse;shape=umlControl;whiteSpace=wrap;html=1;aspect=fixed;" parent="1" vertex="1">
          <mxGeometry x="306" y="392" width="48" height="48" as="geometry" />
        </mxCell>
        <mxCell id="EV8aRCviJuZgnpMaLo0F-71" value="" style="ellipse;shape=umlControl;whiteSpace=wrap;html=1;aspect=fixed;" parent="1" vertex="1">
          <mxGeometry x="304" y="564" width="48" height="48" as="geometry" />
        </mxCell>
        <mxCell id="EV8aRCviJuZgnpMaLo0F-72" value="" style="endArrow=open;html=1;rounded=0;entryX=-0.005;entryY=0.497;entryDx=0;entryDy=0;entryPerimeter=0;exitX=0.998;exitY=0.454;exitDx=0;exitDy=0;exitPerimeter=0;endFill=0;" parent="1" source="EV8aRCviJuZgnpMaLo0F-4" target="EV8aRCviJuZgnpMaLo0F-33" edge="1">
          <mxGeometry width="50" height="50" relative="1" as="geometry">
            <mxPoint x="240" y="340" as="sourcePoint" />
            <mxPoint x="187" y="353" as="targetPoint" />
          </mxGeometry>
        </mxCell>
        <mxCell id="EV8aRCviJuZgnpMaLo0F-73" value="" style="endArrow=open;html=1;rounded=0;entryX=-0.032;entryY=0.589;entryDx=0;entryDy=0;entryPerimeter=0;exitX=1;exitY=0.42;exitDx=0;exitDy=0;exitPerimeter=0;endFill=0;" parent="1" source="EV8aRCviJuZgnpMaLo0F-18" target="EV8aRCviJuZgnpMaLo0F-70" edge="1">
          <mxGeometry width="50" height="50" relative="1" as="geometry">
            <mxPoint x="246" y="352" as="sourcePoint" />
            <mxPoint x="310" y="334" as="targetPoint" />
          </mxGeometry>
        </mxCell>
        <mxCell id="EV8aRCviJuZgnpMaLo0F-74" value="" style="endArrow=open;html=1;rounded=0;entryX=0.021;entryY=0.495;entryDx=0;entryDy=0;entryPerimeter=0;exitX=1.003;exitY=0.446;exitDx=0;exitDy=0;exitPerimeter=0;endFill=0;" parent="1" source="EV8aRCviJuZgnpMaLo0F-19" target="EV8aRCviJuZgnpMaLo0F-71" edge="1">
          <mxGeometry width="50" height="50" relative="1" as="geometry">
            <mxPoint x="247" y="430" as="sourcePoint" />
            <mxPoint x="308" y="419" as="targetPoint" />
          </mxGeometry>
        </mxCell>
        <mxCell id="EV8aRCviJuZgnpMaLo0F-75" value="" style="endArrow=open;html=1;rounded=0;entryX=0.003;entryY=0.532;entryDx=0;entryDy=0;entryPerimeter=0;exitX=0.994;exitY=0.51;exitDx=0;exitDy=0;exitPerimeter=0;endFill=0;" parent="1" source="EV8aRCviJuZgnpMaLo0F-33" target="EV8aRCviJuZgnpMaLo0F-47" edge="1">
          <mxGeometry width="50" height="50" relative="1" as="geometry">
            <mxPoint x="350" y="325" as="sourcePoint" />
            <mxPoint x="310" y="334" as="targetPoint" />
          </mxGeometry>
        </mxCell>
        <mxCell id="EV8aRCviJuZgnpMaLo0F-76" value="" style="shape=umlBoundary;whiteSpace=wrap;html=1;aspect=fixed;" parent="1" vertex="1">
          <mxGeometry x="179" y="570" width="57.6" height="48" as="geometry" />
        </mxCell>
        <mxCell id="EV8aRCviJuZgnpMaLo0F-77" value="&lt;span style=&quot;text-align: center; background-color: initial;&quot;&gt;Comments&lt;/span&gt;&lt;span style=&quot;text-align: center; background-color: initial;&quot;&gt;Page&lt;/span&gt;" style="text;whiteSpace=wrap;html=1;fontSize=8;fontStyle=1" parent="1" vertex="1">
          <mxGeometry x="181" y="616" width="144" height="20" as="geometry" />
        </mxCell>
        <mxCell id="EV8aRCviJuZgnpMaLo0F-78" value="" style="endArrow=open;html=1;rounded=0;exitX=1;exitY=0.3333333333333333;exitDx=0;exitDy=0;exitPerimeter=0;entryX=-0.126;entryY=0.493;entryDx=0;entryDy=0;entryPerimeter=0;endFill=0;" parent="1" source="EV8aRCviJuZgnpMaLo0F-2" target="EV8aRCviJuZgnpMaLo0F-76" edge="1">
          <mxGeometry width="50" height="50" relative="1" as="geometry">
            <mxPoint x="60" y="460" as="sourcePoint" />
            <mxPoint x="184" y="512" as="targetPoint" />
          </mxGeometry>
        </mxCell>
        <mxCell id="EV8aRCviJuZgnpMaLo0F-79" value="" style="ellipse;shape=umlControl;whiteSpace=wrap;html=1;aspect=fixed;" parent="1" vertex="1">
          <mxGeometry x="304" y="645.5" width="48" height="48" as="geometry" />
        </mxCell>
        <mxCell id="EV8aRCviJuZgnpMaLo0F-80" value="&lt;div style=&quot;text-align: center;&quot;&gt;&lt;span style=&quot;background-color: initial; font-size: 8px;&quot;&gt;EditComment&lt;/span&gt;&lt;span style=&quot;background-color: initial;&quot;&gt;&lt;font style=&quot;font-size: 8px;&quot;&gt;Control&lt;/font&gt;&lt;/span&gt;&lt;span style=&quot;background-color: initial; font-size: 8px;&quot;&gt;ler&lt;/span&gt;&lt;/div&gt;" style="text;whiteSpace=wrap;html=1;fontStyle=1" parent="1" vertex="1">
          <mxGeometry x="288" y="684" width="110" height="20" as="geometry" />
        </mxCell>
        <mxCell id="EV8aRCviJuZgnpMaLo0F-81" value="" style="endArrow=open;html=1;rounded=0;entryX=-0.032;entryY=0.584;entryDx=0;entryDy=0;entryPerimeter=0;exitX=0.993;exitY=0.557;exitDx=0;exitDy=0;exitPerimeter=0;endFill=0;" parent="1" source="EV8aRCviJuZgnpMaLo0F-76" target="EV8aRCviJuZgnpMaLo0F-79" edge="1">
          <mxGeometry width="50" height="50" relative="1" as="geometry">
            <mxPoint x="236" y="594" as="sourcePoint" />
            <mxPoint x="311" y="504" as="targetPoint" />
          </mxGeometry>
        </mxCell>
        <mxCell id="EV8aRCviJuZgnpMaLo0F-82" value="" style="ellipse;shape=umlEntity;whiteSpace=wrap;html=1;aspect=fixed;" parent="1" vertex="1">
          <mxGeometry x="540" y="393" width="48" height="48" as="geometry" />
        </mxCell>
        <mxCell id="EV8aRCviJuZgnpMaLo0F-83" value="" style="ellipse;shape=umlControl;whiteSpace=wrap;html=1;aspect=fixed;" parent="1" vertex="1">
          <mxGeometry x="647" y="391" width="48" height="48" as="geometry" />
        </mxCell>
        <mxCell id="EV8aRCviJuZgnpMaLo0F-84" value="&lt;span style=&quot;color: rgb(0, 0, 0); font-family: Helvetica; font-style: normal; font-variant-ligatures: normal; font-variant-caps: normal; letter-spacing: normal; orphans: 2; text-align: center; text-indent: 0px; text-transform: none; widows: 2; word-spacing: 0px; -webkit-text-stroke-width: 0px; white-space: normal; text-decoration-thickness: initial; text-decoration-style: initial; text-decoration-color: initial; float: none; display: inline !important;&quot;&gt;&lt;font style=&quot;font-size: 8px;&quot;&gt;TutorialReview&lt;/font&gt;&lt;/span&gt;&lt;span style=&quot;text-align: center;&quot;&gt;&lt;font style=&quot;font-size: 8px;&quot;&gt;Control&lt;/font&gt;&lt;/span&gt;&lt;span style=&quot;font-size: 8px; text-align: center;&quot;&gt;ler&lt;/span&gt;" style="text;whiteSpace=wrap;html=1;fontStyle=1" parent="1" vertex="1">
          <mxGeometry x="633" y="431" width="110" height="20" as="geometry" />
        </mxCell>
        <mxCell id="EV8aRCviJuZgnpMaLo0F-85" value="" style="ellipse;shape=umlControl;whiteSpace=wrap;html=1;aspect=fixed;" parent="1" vertex="1">
          <mxGeometry x="645" y="569" width="48" height="48" as="geometry" />
        </mxCell>
        <mxCell id="EV8aRCviJuZgnpMaLo0F-86" value="&lt;span style=&quot;color: rgb(0, 0, 0); font-family: Helvetica; font-style: normal; font-variant-ligatures: normal; font-variant-caps: normal; letter-spacing: normal; orphans: 2; text-align: center; text-indent: 0px; text-transform: none; widows: 2; word-spacing: 0px; -webkit-text-stroke-width: 0px; white-space: normal; text-decoration-thickness: initial; text-decoration-style: initial; text-decoration-color: initial; float: none; display: inline !important;&quot;&gt;&lt;font style=&quot;font-size: 8px;&quot;&gt;CommentsReview&lt;/font&gt;&lt;/span&gt;&lt;span style=&quot;text-align: center;&quot;&gt;&lt;font style=&quot;font-size: 8px;&quot;&gt;Control&lt;/font&gt;&lt;/span&gt;&lt;span style=&quot;font-size: 8px; text-align: center;&quot;&gt;ler&lt;/span&gt;" style="text;whiteSpace=wrap;html=1;fontStyle=1" parent="1" vertex="1">
          <mxGeometry x="623" y="608" width="110" height="20" as="geometry" />
        </mxCell>
        <mxCell id="EV8aRCviJuZgnpMaLo0F-87" value="" style="endArrow=open;html=1;rounded=0;entryX=1.017;entryY=0.625;entryDx=0;entryDy=0;entryPerimeter=0;exitX=-0.072;exitY=0.472;exitDx=0;exitDy=0;exitPerimeter=0;endFill=0;" parent="1" source="EV8aRCviJuZgnpMaLo0F-45" target="EV8aRCviJuZgnpMaLo0F-83" edge="1">
          <mxGeometry width="50" height="50" relative="1" as="geometry">
            <mxPoint x="425" y="334" as="sourcePoint" />
            <mxPoint x="487" y="335" as="targetPoint" />
          </mxGeometry>
        </mxCell>
        <mxCell id="EV8aRCviJuZgnpMaLo0F-88" value="" style="endArrow=open;html=1;rounded=0;entryX=1;entryY=0.5;entryDx=0;entryDy=0;exitX=-0.017;exitY=0.514;exitDx=0;exitDy=0;exitPerimeter=0;endFill=0;" parent="1" source="EV8aRCviJuZgnpMaLo0F-83" target="EV8aRCviJuZgnpMaLo0F-82" edge="1">
          <mxGeometry width="50" height="50" relative="1" as="geometry">
            <mxPoint x="435" y="344" as="sourcePoint" />
            <mxPoint x="497" y="345" as="targetPoint" />
          </mxGeometry>
        </mxCell>
        <mxCell id="EV8aRCviJuZgnpMaLo0F-89" value="" style="endArrow=open;html=1;rounded=0;entryX=0;entryY=0;entryDx=0;entryDy=0;exitX=0.992;exitY=0.543;exitDx=0;exitDy=0;exitPerimeter=0;endFill=0;" parent="1" source="EV8aRCviJuZgnpMaLo0F-47" target="EV8aRCviJuZgnpMaLo0F-58" edge="1">
          <mxGeometry width="50" height="50" relative="1" as="geometry">
            <mxPoint x="378" y="354" as="sourcePoint" />
            <mxPoint x="440" y="355" as="targetPoint" />
          </mxGeometry>
        </mxCell>
        <mxCell id="EV8aRCviJuZgnpMaLo0F-90" value="" style="endArrow=open;html=1;rounded=0;entryX=0;entryY=0.5;entryDx=0;entryDy=0;exitX=1.001;exitY=0.49;exitDx=0;exitDy=0;exitPerimeter=0;endFill=0;" parent="1" source="EV8aRCviJuZgnpMaLo0F-70" target="EV8aRCviJuZgnpMaLo0F-82" edge="1">
          <mxGeometry width="50" height="50" relative="1" as="geometry">
            <mxPoint x="388" y="364" as="sourcePoint" />
            <mxPoint x="450" y="365" as="targetPoint" />
          </mxGeometry>
        </mxCell>
        <mxCell id="EV8aRCviJuZgnpMaLo0F-91" value="" style="endArrow=open;html=1;rounded=0;exitX=-0.047;exitY=0.506;exitDx=0;exitDy=0;exitPerimeter=0;entryX=0.999;entryY=0.503;entryDx=0;entryDy=0;entryPerimeter=0;endFill=0;" parent="1" source="EV8aRCviJuZgnpMaLo0F-46" target="EV8aRCviJuZgnpMaLo0F-85" edge="1">
          <mxGeometry width="50" height="50" relative="1" as="geometry">
            <mxPoint x="353.0000000000002" y="810" as="sourcePoint" />
            <mxPoint x="424.78" y="935.96" as="targetPoint" />
          </mxGeometry>
        </mxCell>
        <mxCell id="EV8aRCviJuZgnpMaLo0F-92" value="" style="ellipse;shape=umlEntity;whiteSpace=wrap;html=1;aspect=fixed;" parent="1" vertex="1">
          <mxGeometry x="540" y="571" width="48" height="48" as="geometry" />
        </mxCell>
        <mxCell id="EV8aRCviJuZgnpMaLo0F-93" value="&lt;span style=&quot;color: rgb(0, 0, 0); font-family: Helvetica; font-style: normal; font-variant-ligatures: normal; font-variant-caps: normal; letter-spacing: normal; orphans: 2; text-align: center; text-indent: 0px; text-transform: none; widows: 2; word-spacing: 0px; -webkit-text-stroke-width: 0px; white-space: normal; text-decoration-thickness: initial; text-decoration-style: initial; text-decoration-color: initial; float: none; display: inline !important;&quot;&gt;&lt;font style=&quot;font-size: 8px;&quot;&gt;Comments&lt;/font&gt;&lt;/span&gt;" style="text;whiteSpace=wrap;html=1;fontStyle=1" parent="1" vertex="1">
          <mxGeometry x="542" y="612" width="110" height="20" as="geometry" />
        </mxCell>
        <mxCell id="EV8aRCviJuZgnpMaLo0F-94" value="" style="ellipse;shape=umlControl;whiteSpace=wrap;html=1;aspect=fixed;" parent="1" vertex="1">
          <mxGeometry x="421" y="525" width="48" height="48" as="geometry" />
        </mxCell>
        <mxCell id="EV8aRCviJuZgnpMaLo0F-95" value="&lt;div style=&quot;text-align: center;&quot;&gt;&lt;span style=&quot;background-color: initial; font-size: 8px;&quot;&gt;AIExam&lt;/span&gt;&lt;span style=&quot;background-color: initial;&quot;&gt;&lt;font style=&quot;font-size: 8px;&quot;&gt;Control&lt;/font&gt;&lt;/span&gt;&lt;span style=&quot;background-color: initial; font-size: 8px;&quot;&gt;ler&lt;/span&gt;&lt;span style=&quot;background-color: initial; font-size: 8px; text-align: left;&quot;&gt;&amp;nbsp;&lt;/span&gt;&lt;/div&gt;" style="text;whiteSpace=wrap;html=1;fontStyle=1" parent="1" vertex="1">
          <mxGeometry x="412" y="562.5" width="110" height="20" as="geometry" />
        </mxCell>
        <mxCell id="EV8aRCviJuZgnpMaLo0F-96" value="" style="ellipse;shape=umlEntity;whiteSpace=wrap;html=1;aspect=fixed;" parent="1" vertex="1">
          <mxGeometry x="540" y="663" width="48" height="48" as="geometry" />
        </mxCell>
        <mxCell id="EV8aRCviJuZgnpMaLo0F-97" value="&lt;span style=&quot;color: rgb(0, 0, 0); font-family: Helvetica; font-style: normal; font-variant-ligatures: normal; font-variant-caps: normal; letter-spacing: normal; orphans: 2; text-align: center; text-indent: 0px; text-transform: none; widows: 2; word-spacing: 0px; -webkit-text-stroke-width: 0px; white-space: normal; text-decoration-thickness: initial; text-decoration-style: initial; text-decoration-color: initial; float: none; display: inline !important;&quot;&gt;&lt;font style=&quot;font-size: 8px;&quot;&gt;Rewards&lt;/font&gt;&lt;/span&gt;" style="text;whiteSpace=wrap;html=1;fontStyle=1" parent="1" vertex="1">
          <mxGeometry x="546" y="704" width="110" height="20" as="geometry" />
        </mxCell>
        <mxCell id="EV8aRCviJuZgnpMaLo0F-98" value="" style="ellipse;shape=umlControl;whiteSpace=wrap;html=1;aspect=fixed;" parent="1" vertex="1">
          <mxGeometry x="303" y="725" width="48" height="48" as="geometry" />
        </mxCell>
        <mxCell id="EV8aRCviJuZgnpMaLo0F-99" value="&lt;div style=&quot;text-align: center;&quot;&gt;&lt;span style=&quot;font-size: 8px;&quot;&gt;UploadTutorial&lt;/span&gt;&lt;span style=&quot;background-color: initial;&quot;&gt;&lt;font style=&quot;font-size: 8px;&quot;&gt;Control&lt;/font&gt;&lt;/span&gt;&lt;span style=&quot;background-color: initial; font-size: 8px;&quot;&gt;ler&lt;/span&gt;&lt;/div&gt;" style="text;whiteSpace=wrap;html=1;fontStyle=1" parent="1" vertex="1">
          <mxGeometry x="405" y="704" width="110" height="20" as="geometry" />
        </mxCell>
        <mxCell id="EV8aRCviJuZgnpMaLo0F-100" value="" style="endArrow=open;html=1;rounded=0;entryX=-0.06;entryY=0.52;entryDx=0;entryDy=0;exitX=1.019;exitY=0.522;exitDx=0;exitDy=0;exitPerimeter=0;entryPerimeter=0;endFill=0;" parent="1" source="EV8aRCviJuZgnpMaLo0F-71" target="EV8aRCviJuZgnpMaLo0F-94" edge="1">
          <mxGeometry width="50" height="50" relative="1" as="geometry">
            <mxPoint x="358" y="415" as="sourcePoint" />
            <mxPoint x="520" y="421" as="targetPoint" />
          </mxGeometry>
        </mxCell>
        <mxCell id="EV8aRCviJuZgnpMaLo0F-101" value="" style="endArrow=open;html=1;rounded=0;entryX=0;entryY=0.5;entryDx=0;entryDy=0;exitX=1.036;exitY=0.573;exitDx=0;exitDy=0;exitPerimeter=0;endFill=0;" parent="1" source="EV8aRCviJuZgnpMaLo0F-94" target="EV8aRCviJuZgnpMaLo0F-96" edge="1">
          <mxGeometry width="50" height="50" relative="1" as="geometry">
            <mxPoint x="359" y="505" as="sourcePoint" />
            <mxPoint x="417" y="510" as="targetPoint" />
          </mxGeometry>
        </mxCell>
        <mxCell id="EV8aRCviJuZgnpMaLo0F-102" value="" style="endArrow=open;html=1;rounded=0;exitX=1.004;exitY=0.559;exitDx=0;exitDy=0;exitPerimeter=0;entryX=0;entryY=0.5;entryDx=0;entryDy=0;endFill=0;" parent="1" source="EV8aRCviJuZgnpMaLo0F-79" target="EV8aRCviJuZgnpMaLo0F-92" edge="1">
          <mxGeometry width="50" height="50" relative="1" as="geometry">
            <mxPoint x="369" y="515" as="sourcePoint" />
            <mxPoint x="470" y="620" as="targetPoint" />
          </mxGeometry>
        </mxCell>
        <mxCell id="EV8aRCviJuZgnpMaLo0F-103" value="" style="endArrow=open;html=1;rounded=0;exitX=-0.027;exitY=0.567;exitDx=0;exitDy=0;exitPerimeter=0;endFill=0;entryX=1;entryY=0.5;entryDx=0;entryDy=0;" parent="1" source="EV8aRCviJuZgnpMaLo0F-85" target="EV8aRCviJuZgnpMaLo0F-92" edge="1">
          <mxGeometry width="50" height="50" relative="1" as="geometry">
            <mxPoint x="363" y="597" as="sourcePoint" />
            <mxPoint x="568" y="590" as="targetPoint" />
          </mxGeometry>
        </mxCell>
        <mxCell id="EV8aRCviJuZgnpMaLo0F-104" value="" style="ellipse;shape=umlControl;whiteSpace=wrap;html=1;aspect=fixed;" parent="1" vertex="1">
          <mxGeometry x="421" y="664" width="48" height="48" as="geometry" />
        </mxCell>
        <mxCell id="EV8aRCviJuZgnpMaLo0F-105" value="&lt;div style=&quot;text-align: center;&quot;&gt;&lt;span style=&quot;font-size: 8px;&quot;&gt;EditTutorial&lt;/span&gt;&lt;span style=&quot;background-color: initial;&quot;&gt;&lt;font style=&quot;font-size: 8px;&quot;&gt;Control&lt;/font&gt;&lt;/span&gt;&lt;span style=&quot;background-color: initial; font-size: 8px;&quot;&gt;ler&lt;/span&gt;&lt;/div&gt;" style="text;whiteSpace=wrap;html=1;fontStyle=1" parent="1" vertex="1">
          <mxGeometry x="290" y="765" width="110" height="20" as="geometry" />
        </mxCell>
        <mxCell id="EV8aRCviJuZgnpMaLo0F-106" value="" style="endArrow=open;html=1;rounded=0;entryX=-0.015;entryY=0.578;entryDx=0;entryDy=0;entryPerimeter=0;exitX=0.989;exitY=0.469;exitDx=0;exitDy=0;exitPerimeter=0;endFill=0;" parent="1" source="EV8aRCviJuZgnpMaLo0F-22" target="EV8aRCviJuZgnpMaLo0F-98" edge="1">
          <mxGeometry width="50" height="50" relative="1" as="geometry">
            <mxPoint x="240" y="686" as="sourcePoint" />
            <mxPoint x="521" y="602" as="targetPoint" />
          </mxGeometry>
        </mxCell>
        <mxCell id="EV8aRCviJuZgnpMaLo0F-108" value="" style="endArrow=open;html=1;rounded=0;exitX=0.947;exitY=0.311;exitDx=0;exitDy=0;exitPerimeter=0;entryX=0;entryY=0.5;entryDx=0;entryDy=0;endFill=0;" parent="1" source="EV8aRCviJuZgnpMaLo0F-104" target="EV8aRCviJuZgnpMaLo0F-58" edge="1">
          <mxGeometry width="50" height="50" relative="1" as="geometry">
            <mxPoint x="365" y="607" as="sourcePoint" />
            <mxPoint x="531" y="611" as="targetPoint" />
          </mxGeometry>
        </mxCell>
        <mxCell id="EV8aRCviJuZgnpMaLo0F-109" value="" style="endArrow=open;html=1;rounded=0;exitX=0.999;exitY=0.549;exitDx=0;exitDy=0;exitPerimeter=0;entryX=-0.033;entryY=0.485;entryDx=0;entryDy=0;entryPerimeter=0;endFill=0;" parent="1" source="EV8aRCviJuZgnpMaLo0F-98" target="EV8aRCviJuZgnpMaLo0F-104" edge="1">
          <mxGeometry width="50" height="50" relative="1" as="geometry">
            <mxPoint x="375" y="618" as="sourcePoint" />
            <mxPoint x="541" y="622" as="targetPoint" />
          </mxGeometry>
        </mxCell>
        <mxCell id="EV8aRCviJuZgnpMaLo0F-110" value="" style="endArrow=open;html=1;rounded=0;entryX=0;entryY=0.5;entryDx=0;entryDy=0;exitX=1.002;exitY=0.465;exitDx=0;exitDy=0;exitPerimeter=0;endFill=0;" parent="1" source="EV8aRCviJuZgnpMaLo0F-104" target="EV8aRCviJuZgnpMaLo0F-96" edge="1">
          <mxGeometry width="50" height="50" relative="1" as="geometry">
            <mxPoint x="460" y="671" as="sourcePoint" />
            <mxPoint x="551" y="632" as="targetPoint" />
          </mxGeometry>
        </mxCell>
        <mxCell id="EV8aRCviJuZgnpMaLo0F-114" value="" style="shape=umlBoundary;whiteSpace=wrap;html=1;aspect=fixed;" parent="1" vertex="1">
          <mxGeometry x="179" y="232" width="57.6" height="48" as="geometry" />
        </mxCell>
        <mxCell id="EV8aRCviJuZgnpMaLo0F-115" value="&lt;span style=&quot;color: rgb(0, 0, 0); font-family: Helvetica; font-style: normal; font-variant-ligatures: normal; font-variant-caps: normal; letter-spacing: normal; orphans: 2; text-align: center; text-indent: 0px; text-transform: none; widows: 2; word-spacing: 0px; -webkit-text-stroke-width: 0px; white-space: normal; text-decoration-thickness: initial; text-decoration-style: initial; text-decoration-color: initial; float: none; display: inline !important;&quot;&gt;&lt;font style=&quot;font-size: 8px;&quot;&gt;ChargePage&lt;/font&gt;&lt;/span&gt;" style="text;whiteSpace=wrap;html=1;fontStyle=1" parent="1" vertex="1">
          <mxGeometry x="186" y="274" width="110" height="20" as="geometry" />
        </mxCell>
        <mxCell id="EV8aRCviJuZgnpMaLo0F-116" value="" style="endArrow=open;html=1;rounded=0;exitX=1;exitY=0.3333333333333333;exitDx=0;exitDy=0;exitPerimeter=0;entryX=-0.033;entryY=0.498;entryDx=0;entryDy=0;entryPerimeter=0;endFill=0;" parent="1" source="EV8aRCviJuZgnpMaLo0F-2" target="EV8aRCviJuZgnpMaLo0F-114" edge="1">
          <mxGeometry width="50" height="50" relative="1" as="geometry">
            <mxPoint x="60" y="460" as="sourcePoint" />
            <mxPoint x="187" y="353" as="targetPoint" />
          </mxGeometry>
        </mxCell>
        <mxCell id="EV8aRCviJuZgnpMaLo0F-117" value="" style="ellipse;shape=umlControl;whiteSpace=wrap;html=1;aspect=fixed;" parent="1" vertex="1">
          <mxGeometry x="306" y="230" width="48" height="48" as="geometry" />
        </mxCell>
        <mxCell id="EV8aRCviJuZgnpMaLo0F-118" value="&lt;span style=&quot;color: rgb(0, 0, 0); font-family: Helvetica; font-style: normal; font-variant-ligatures: normal; font-variant-caps: normal; letter-spacing: normal; orphans: 2; text-align: center; text-indent: 0px; text-transform: none; widows: 2; word-spacing: 0px; -webkit-text-stroke-width: 0px; white-space: normal; text-decoration-thickness: initial; text-decoration-style: initial; text-decoration-color: initial; float: none; display: inline !important;&quot;&gt;&lt;font style=&quot;font-size: 8px;&quot;&gt;ChooseTutorial&lt;/font&gt;&lt;/span&gt;&lt;span style=&quot;font-size: 8px; text-align: center;&quot;&gt;Control&lt;/span&gt;&lt;span style=&quot;font-size: 8px; text-align: center;&quot;&gt;ler&lt;/span&gt;" style="text;whiteSpace=wrap;html=1;fontStyle=1" parent="1" vertex="1">
          <mxGeometry x="296" y="359" width="110" height="20" as="geometry" />
        </mxCell>
        <mxCell id="EV8aRCviJuZgnpMaLo0F-119" value="" style="endArrow=open;html=1;rounded=0;entryX=-0.046;entryY=0.51;entryDx=0;entryDy=0;entryPerimeter=0;exitX=0.994;exitY=0.498;exitDx=0;exitDy=0;exitPerimeter=0;endFill=0;" parent="1" source="EV8aRCviJuZgnpMaLo0F-114" target="EV8aRCviJuZgnpMaLo0F-117" edge="1">
          <mxGeometry width="50" height="50" relative="1" as="geometry">
            <mxPoint x="246" y="352" as="sourcePoint" />
            <mxPoint x="317" y="351" as="targetPoint" />
          </mxGeometry>
        </mxCell>
        <mxCell id="EV8aRCviJuZgnpMaLo0F-120" value="" style="ellipse;shape=umlEntity;whiteSpace=wrap;html=1;aspect=fixed;" parent="1" vertex="1">
          <mxGeometry x="425" y="232" width="48" height="48" as="geometry" />
        </mxCell>
        <mxCell id="EV8aRCviJuZgnpMaLo0F-121" value="&lt;span style=&quot;color: rgb(0, 0, 0); font-family: Helvetica; font-style: normal; font-variant-ligatures: normal; font-variant-caps: normal; letter-spacing: normal; orphans: 2; text-align: center; text-indent: 0px; text-transform: none; widows: 2; word-spacing: 0px; -webkit-text-stroke-width: 0px; white-space: normal; text-decoration-thickness: initial; text-decoration-style: initial; text-decoration-color: initial; float: none; display: inline !important;&quot;&gt;&lt;font style=&quot;font-size: 8px;&quot;&gt;VIP User&lt;/font&gt;&lt;/span&gt;" style="text;whiteSpace=wrap;html=1;fontStyle=1" parent="1" vertex="1">
          <mxGeometry x="431" y="274" width="110" height="20" as="geometry" />
        </mxCell>
        <mxCell id="EV8aRCviJuZgnpMaLo0F-122" value="" style="endArrow=open;html=1;rounded=0;exitX=1;exitY=0.513;exitDx=0;exitDy=0;exitPerimeter=0;endFill=0;entryX=0;entryY=0.5;entryDx=0;entryDy=0;" parent="1" source="EV8aRCviJuZgnpMaLo0F-117" target="EV8aRCviJuZgnpMaLo0F-120" edge="1">
          <mxGeometry width="50" height="50" relative="1" as="geometry">
            <mxPoint x="246" y="266" as="sourcePoint" />
            <mxPoint x="420" y="260" as="targetPoint" />
          </mxGeometry>
        </mxCell>
        <mxCell id="EV8aRCviJuZgnpMaLo0F-123" value="" style="ellipse;shape=umlControl;whiteSpace=wrap;html=1;aspect=fixed;" parent="1" vertex="1">
          <mxGeometry x="307" y="476" width="48" height="48" as="geometry" />
        </mxCell>
        <mxCell id="EV8aRCviJuZgnpMaLo0F-125" value="&lt;div style=&quot;text-align: center;&quot;&gt;&lt;span style=&quot;font-size: 8px;&quot;&gt;DataAnalysis&lt;/span&gt;&lt;span style=&quot;font-size: 8px; background-color: initial;&quot;&gt;Controller&lt;/span&gt;&lt;/div&gt;" style="text;whiteSpace=wrap;html=1;fontStyle=1" parent="1" vertex="1">
          <mxGeometry x="290" y="515" width="110" height="20" as="geometry" />
        </mxCell>
        <mxCell id="EV8aRCviJuZgnpMaLo0F-126" value="" style="ellipse;shape=umlEntity;whiteSpace=wrap;html=1;aspect=fixed;" parent="1" vertex="1">
          <mxGeometry x="540" y="320" width="48" height="48" as="geometry" />
        </mxCell>
        <mxCell id="EV8aRCviJuZgnpMaLo0F-127" value="&lt;div style=&quot;text-align: center;&quot;&gt;&lt;span style=&quot;background-color: initial; font-size: 8px;&quot;&gt;Sports Data&lt;/span&gt;&lt;/div&gt;" style="text;whiteSpace=wrap;html=1;fontStyle=1" parent="1" vertex="1">
          <mxGeometry x="540" y="360" width="110" height="20" as="geometry" />
        </mxCell>
        <mxCell id="EV8aRCviJuZgnpMaLo0F-128" value="" style="endArrow=open;html=1;rounded=0;entryX=0.002;entryY=0.636;entryDx=0;entryDy=0;exitX=0.992;exitY=0.675;exitDx=0;exitDy=0;exitPerimeter=0;endFill=0;entryPerimeter=0;" parent="1" source="EV8aRCviJuZgnpMaLo0F-18" target="EV8aRCviJuZgnpMaLo0F-123" edge="1">
          <mxGeometry width="50" height="50" relative="1" as="geometry">
            <mxPoint x="364" y="426" as="sourcePoint" />
            <mxPoint x="542" y="425" as="targetPoint" />
          </mxGeometry>
        </mxCell>
        <mxCell id="EV8aRCviJuZgnpMaLo0F-129" value="" style="endArrow=open;html=1;rounded=0;entryX=-0.042;entryY=0.573;entryDx=0;entryDy=0;exitX=1.007;exitY=0.531;exitDx=0;exitDy=0;exitPerimeter=0;endFill=0;entryPerimeter=0;" parent="1" source="EV8aRCviJuZgnpMaLo0F-123" target="EV8aRCviJuZgnpMaLo0F-126" edge="1">
          <mxGeometry width="50" height="50" relative="1" as="geometry">
            <mxPoint x="364" y="431" as="sourcePoint" />
            <mxPoint x="435" y="480" as="targetPoint" />
          </mxGeometry>
        </mxCell>
        <mxCell id="EV8aRCviJuZgnpMaLo0F-132" value="" style="ellipse;shape=umlControl;whiteSpace=wrap;html=1;aspect=fixed;" parent="1" vertex="1">
          <mxGeometry x="421" y="431" width="48" height="48" as="geometry" />
        </mxCell>
        <mxCell id="EV8aRCviJuZgnpMaLo0F-135" value="&lt;span style=&quot;color: rgb(0, 0, 0); font-family: Helvetica; font-style: normal; font-variant-ligatures: normal; font-variant-caps: normal; letter-spacing: normal; orphans: 2; text-align: center; text-indent: 0px; text-transform: none; widows: 2; word-spacing: 0px; -webkit-text-stroke-width: 0px; white-space: normal; text-decoration-thickness: initial; text-decoration-style: initial; text-decoration-color: initial; float: none; display: inline !important;&quot;&gt;&lt;font style=&quot;font-size: 8px;&quot;&gt;PlanMake&lt;/font&gt;&lt;/span&gt;&lt;span style=&quot;text-align: center;&quot;&gt;&lt;font style=&quot;font-size: 8px;&quot;&gt;Control&lt;/font&gt;&lt;/span&gt;&lt;span style=&quot;font-size: 8px; text-align: center;&quot;&gt;ler&lt;/span&gt;" style="text;whiteSpace=wrap;html=1;fontStyle=1" parent="1" vertex="1">
          <mxGeometry x="412" y="471" width="110" height="20" as="geometry" />
        </mxCell>
        <mxCell id="EV8aRCviJuZgnpMaLo0F-136" value="" style="endArrow=open;html=1;rounded=0;entryX=-0.001;entryY=0.646;entryDx=0;entryDy=0;exitX=0.981;exitY=0.585;exitDx=0;exitDy=0;exitPerimeter=0;endFill=0;entryPerimeter=0;" parent="1" source="EV8aRCviJuZgnpMaLo0F-18" target="EV8aRCviJuZgnpMaLo0F-132" edge="1">
          <mxGeometry width="50" height="50" relative="1" as="geometry">
            <mxPoint x="365" y="511" as="sourcePoint" />
            <mxPoint x="548" y="358" as="targetPoint" />
          </mxGeometry>
        </mxCell>
        <mxCell id="EV8aRCviJuZgnpMaLo0F-137" value="" style="endArrow=open;html=1;rounded=0;entryX=0.024;entryY=-0.155;entryDx=0;entryDy=0;exitX=0.999;exitY=0.464;exitDx=0;exitDy=0;exitPerimeter=0;endFill=0;entryPerimeter=0;" parent="1" source="EV8aRCviJuZgnpMaLo0F-132" target="EV8aRCviJuZgnpMaLo0F-127" edge="1">
          <mxGeometry width="50" height="50" relative="1" as="geometry">
            <mxPoint x="365" y="511" as="sourcePoint" />
            <mxPoint x="548" y="358" as="targetPoint" />
          </mxGeometry>
        </mxCell>
      </root>
    </mxGraphModel>
  </diagram>
</mxfile>
